<svg width="45" height="45" viewBox="0 0 45 45" fill="none" xmlns="http://www.w3.org/2000/svg">
<rect x="0.3125" y="0.15625" width="44" height="44" rx="22" fill="#FFEFF7"/>
<path d="M22.3125 12.1562C24.9647 12.1563 27.5082 13.2098 29.3836 15.0852C31.2589 16.9605 32.3125 19.5041 32.3125 22.1562C32.3125 24.8084 31.2589 27.352 29.3836 29.2273C27.5082 31.1027 24.9647 32.1562 22.3125 32.1562C19.6603 32.1562 17.1168 31.1027 15.2414 29.2273C13.3661 27.352 12.3125 24.8084 12.3125 22.1562C12.3125 19.5041 13.3661 16.9605 15.2414 15.0852C17.1168 13.2098 19.6603 12.1563 22.3125 12.1562ZM19.5375 23.0938C19.6959 24.9421 20.279 26.7289 21.2413 28.315C21.56 28.8475 21.9187 29.355 22.3125 29.8337C22.6187 29.4638 23.0013 28.9525 23.3838 28.315C24.346 26.7289 24.9291 24.9421 25.0875 23.0938H19.5375ZM25.0875 21.2188C24.9291 19.3704 24.346 17.5836 23.3838 15.9975C23 15.36 22.6187 14.8488 22.3125 14.4787C21.918 14.9575 21.5599 15.4652 21.2413 15.9975C20.279 17.5836 19.6959 19.3704 19.5375 21.2188H25.0875ZM17.6575 23.0938H14.2413C14.4271 24.6871 15.08 26.19 16.1178 27.4133C17.1556 28.6366 18.5319 29.5257 20.0738 29.9688C19.92 29.7425 19.7737 29.5125 19.6337 29.2787C18.74 27.7887 17.8375 25.6862 17.6575 23.0938ZM14.2413 21.2188H17.6575C17.8375 18.6263 18.74 16.5238 19.6325 15.0338C19.7825 14.7875 19.9288 14.5575 20.0738 14.3438C18.5319 14.7868 17.1556 15.6759 16.1178 16.8992C15.08 18.1225 14.4271 19.6254 14.2413 21.2188ZM26.9675 23.0938C26.7875 25.6862 25.885 27.7887 24.9925 29.2787C24.8425 29.525 24.6963 29.755 24.5513 29.9688C26.0931 29.5257 27.4694 28.6366 28.5072 27.4133C29.545 26.19 30.1979 24.6871 30.3837 23.0938H26.9675ZM30.3837 21.2188C30.1979 19.6254 29.545 18.1225 28.5072 16.8992C27.4694 15.6759 26.0931 14.7868 24.5513 14.3438C24.705 14.57 24.8512 14.8 24.9925 15.0338C25.885 16.5238 26.7875 18.6263 26.9675 21.2188H30.3837Z" fill="#BF3989"/>
</svg>
