<svg width="44" height="45" viewBox="0 0 44 45" fill="none" xmlns="http://www.w3.org/2000/svg">
<rect y="0.15625" width="44" height="44" rx="22" fill="#DDF4FF"/>
<path d="M14.1875 32.1562C13.6073 32.1562 13.0509 31.9258 12.6407 31.5155C12.2305 31.1053 12 30.5489 12 29.9688V14.3438C12 13.1362 12.98 12.1562 14.1875 12.1562H24.8125C26.02 12.1562 27 13.1362 27 14.3438V29.9688C27 30.075 26.9925 30.1787 26.9775 30.2812H29.8125C29.8954 30.2812 29.9749 30.2483 30.0335 30.1897C30.0921 30.1311 30.125 30.0516 30.125 29.9688V22.5125C30.125 22.4611 30.1124 22.4105 30.0882 22.3651C30.064 22.3198 30.029 22.2811 29.9862 22.2525L28.6675 21.3737C28.5651 21.3055 28.4771 21.2177 28.4086 21.1154C28.3401 21.0131 28.2924 20.8983 28.2683 20.7776C28.2441 20.6569 28.244 20.5326 28.2679 20.4118C28.2918 20.2911 28.3392 20.1762 28.4075 20.0738C28.4758 19.9713 28.5636 19.8833 28.6659 19.8148C28.7682 19.7463 28.8829 19.6987 29.0037 19.6745C29.1244 19.6504 29.2487 19.6502 29.3694 19.6741C29.4902 19.698 29.6051 19.7455 29.7075 19.8137L31.0262 20.6925C31.635 21.0988 32 21.7812 32 22.5125V29.9688C32 30.5489 31.7695 31.1053 31.3593 31.5155C30.9491 31.9258 30.3927 32.1562 29.8125 32.1562H25.4375C25.3544 32.1562 25.2716 32.1452 25.1913 32.1238C25.0675 32.145 24.9412 32.1562 24.8125 32.1562H21.0625C20.8139 32.1562 20.5754 32.0575 20.3996 31.8817C20.2238 31.7058 20.125 31.4674 20.125 31.2188V29.6562H18.875V31.2188C18.875 31.4674 18.7762 31.7058 18.6004 31.8817C18.4246 32.0575 18.1861 32.1562 17.9375 32.1562H14.1875ZM13.875 29.9688C13.875 30.1413 14.015 30.2812 14.1875 30.2812H17V28.7188C17 28.4701 17.0988 28.2317 17.2746 28.0558C17.4504 27.88 17.6889 27.7812 17.9375 27.7812H21.0625C21.3111 27.7812 21.5496 27.88 21.7254 28.0558C21.9012 28.2317 22 28.4701 22 28.7188V30.2812H24.8125C24.8954 30.2812 24.9749 30.2483 25.0335 30.1897C25.0921 30.1311 25.125 30.0516 25.125 29.9688V14.3438C25.125 14.2609 25.0921 14.1814 25.0335 14.1228C24.9749 14.0642 24.8954 14.0312 24.8125 14.0312H14.1875C14.1046 14.0312 14.0251 14.0642 13.9665 14.1228C13.9079 14.1814 13.875 14.2609 13.875 14.3438V29.9688ZM16.6875 19.6562H17.3125C17.5611 19.6562 17.7996 19.755 17.9754 19.9308C18.1512 20.1067 18.25 20.3451 18.25 20.5938C18.25 20.8424 18.1512 21.0808 17.9754 21.2567C17.7996 21.4325 17.5611 21.5312 17.3125 21.5312H16.6875C16.4389 21.5312 16.2004 21.4325 16.0246 21.2567C15.8488 21.0808 15.75 20.8424 15.75 20.5938C15.75 20.3451 15.8488 20.1067 16.0246 19.9308C16.2004 19.755 16.4389 19.6562 16.6875 19.6562ZM15.75 16.8438C15.75 16.5951 15.8488 16.3567 16.0246 16.1808C16.2004 16.005 16.4389 15.9062 16.6875 15.9062H17.3125C17.5611 15.9062 17.7996 16.005 17.9754 16.1808C18.1512 16.3567 18.25 16.5951 18.25 16.8438C18.25 17.0924 18.1512 17.3308 17.9754 17.5067C17.7996 17.6825 17.5611 17.7812 17.3125 17.7812H16.6875C16.4389 17.7812 16.2004 17.6825 16.0246 17.5067C15.8488 17.3308 15.75 17.0924 15.75 16.8438ZM20.75 20.5938C20.75 20.3451 20.8488 20.1067 21.0246 19.9308C21.2004 19.755 21.4389 19.6562 21.6875 19.6562H22.3125C22.5611 19.6562 22.7996 19.755 22.9754 19.9308C23.1512 20.1067 23.25 20.3451 23.25 20.5938C23.25 20.8424 23.1512 21.0808 22.9754 21.2567C22.7996 21.4325 22.5611 21.5312 22.3125 21.5312H21.6875C21.4389 21.5312 21.2004 21.4325 21.0246 21.2567C20.8488 21.0808 20.75 20.8424 20.75 20.5938ZM21.6875 15.9062H22.3125C22.5611 15.9062 22.7996 16.005 22.9754 16.1808C23.1512 16.3567 23.25 16.5951 23.25 16.8438C23.25 17.0924 23.1512 17.3308 22.9754 17.5067C22.7996 17.6825 22.5611 17.7812 22.3125 17.7812H21.6875C21.4389 17.7812 21.2004 17.6825 21.0246 17.5067C20.8488 17.3308 20.75 17.0924 20.75 16.8438C20.75 16.5951 20.8488 16.3567 21.0246 16.1808C21.2004 16.005 21.4389 15.9062 21.6875 15.9062ZM15.75 24.3438C15.75 24.0951 15.8488 23.8567 16.0246 23.6808C16.2004 23.505 16.4389 23.4062 16.6875 23.4062H17.3125C17.5611 23.4062 17.7996 23.505 17.9754 23.6808C18.1512 23.8567 18.25 24.0951 18.25 24.3438C18.25 24.5924 18.1512 24.8308 17.9754 25.0067C17.7996 25.1825 17.5611 25.2812 17.3125 25.2812H16.6875C16.4389 25.2812 16.2004 25.1825 16.0246 25.0067C15.8488 24.8308 15.75 24.5924 15.75 24.3438ZM21.6875 23.4062H22.3125C22.5611 23.4062 22.7996 23.505 22.9754 23.6808C23.1512 23.8567 23.25 24.0951 23.25 24.3438C23.25 24.5924 23.1512 24.8308 22.9754 25.0067C22.7996 25.1825 22.5611 25.2812 22.3125 25.2812H21.6875C21.4389 25.2812 21.2004 25.1825 21.0246 25.0067C20.8488 24.8308 20.75 24.5924 20.75 24.3438C20.75 24.0951 20.8488 23.8567 21.0246 23.6808C21.2004 23.505 21.4389 23.4062 21.6875 23.4062Z" fill="#0969DA"/>
</svg>
