<svg width="45" height="45" viewBox="0 0 45 45" fill="none" xmlns="http://www.w3.org/2000/svg">
<rect x="0.65625" y="0.15625" width="44" height="44" rx="22" fill="#FFF8C5"/>
<path d="M22.2717 13.4888C22.3923 13.4344 22.5231 13.4062 22.6554 13.4062C22.7878 13.4062 22.9186 13.4344 23.0392 13.4888L32.1017 17.5513C32.2664 17.6253 32.4063 17.7455 32.5044 17.8971C32.6025 18.0488 32.6546 18.2256 32.6546 18.4063C32.6546 18.5869 32.6025 18.7637 32.5044 18.9154C32.4063 19.067 32.2664 19.1872 32.1017 19.2613L28.9054 20.695V24.1875C28.9054 25.4675 27.8929 26.3738 26.8304 26.9038C25.7142 27.4625 24.2367 27.7813 22.6554 27.7813C22.3079 27.7813 21.9679 27.7663 21.6354 27.7363C21.3898 27.7116 21.1638 27.5912 21.0065 27.401C20.8492 27.2107 20.7732 26.9662 20.7951 26.7203C20.817 26.4744 20.935 26.2471 21.1234 26.0877C21.3119 25.9282 21.5556 25.8496 21.8017 25.8688C22.0767 25.8938 22.3642 25.9063 22.6554 25.9063C24.0079 25.9063 25.1867 25.63 25.9929 25.2275C26.8554 24.7963 27.0304 24.375 27.0304 24.1875V21.535L23.0392 23.3238C22.9186 23.3781 22.7878 23.4063 22.6554 23.4063C22.5231 23.4063 22.3923 23.3781 22.2717 23.3238L17.6554 21.2563V23.335C18.0254 23.4663 18.3742 23.6788 18.6704 23.975C19.2179 24.5225 19.5304 25.2988 19.5304 26.22V29.97C19.5304 30.2186 19.4317 30.4571 19.2559 30.6329C19.08 30.8087 18.8416 30.9075 18.5929 30.9075H14.8429C14.5943 30.9075 14.3558 30.8087 14.18 30.6329C14.0042 30.4571 13.9054 30.2186 13.9054 29.97V26.22C13.9054 25.2988 14.2179 24.5225 14.7654 23.975C15.0617 23.6788 15.4104 23.4663 15.7804 23.335V20.4138L13.2092 19.2613C13.0445 19.1872 12.9046 19.067 12.8065 18.9154C12.7084 18.7637 12.6562 18.5869 12.6562 18.4063C12.6562 18.2256 12.7084 18.0488 12.8065 17.8971C12.9046 17.7455 13.0445 17.6253 13.2092 17.5513L22.2717 13.4888ZM15.8842 18.4063L22.6554 21.4413L29.4254 18.4063L22.6554 15.3713L15.8842 18.4063ZM15.7804 26.2188V29.0313H17.6554V26.2188C17.6554 25.7338 17.4992 25.455 17.3429 25.3C17.2609 25.2183 17.1633 25.1538 17.056 25.1102C16.9487 25.0666 16.8338 25.0449 16.7179 25.0463C16.4843 25.0449 16.2595 25.1361 16.0929 25.3C15.9367 25.455 15.7804 25.7338 15.7804 26.2188Z" fill="#9A6700"/>
</svg>
