<svg width="20" height="25" viewBox="0 0 20 25" fill="none" xmlns="http://www.w3.org/2000/svg">
  <path d="M0.626438 14.1267C0.813938 13.9394 1.0681 13.8342 1.3331 13.8342C1.59811 13.8342 1.85227 13.9394 2.03977 14.1267L8.66644 20.7533V1.5C8.66644 1.23478 8.7718 0.980429 8.95933 0.792893C9.14687 0.605357 9.40122 0.5 9.66644 0.5C9.93165 0.5 10.186 0.605357 10.3735 0.792893C10.5611 0.980429 10.6664 1.23478 10.6664 1.5V20.7533L17.2931 14.1267C17.4153 13.995 17.5708 13.8988 17.7431 13.8481C17.9155 13.7974 18.0983 13.7942 18.2723 13.8387C18.4463 13.8832 18.6052 13.9738 18.732 14.101C18.8589 14.2281 18.9491 14.3872 18.9931 14.5613C19.0377 14.7352 19.0346 14.9178 18.9841 15.09C18.9337 15.2622 18.8377 15.4177 18.7064 15.54L10.3731 23.8733C10.1856 24.0606 9.93144 24.1658 9.66644 24.1658C9.40144 24.1658 9.14727 24.0606 8.95977 23.8733L0.626438 15.54C0.43917 15.3525 0.333984 15.0983 0.333984 14.8333C0.333984 14.5683 0.43917 14.3142 0.626438 14.1267Z" fill="#0969DA" />
</svg>