<svg width="18" height="19" viewBox="0 0 18 19" fill="none" xmlns="http://www.w3.org/2000/svg">
<path d="M17.007 0.65625H0.994029C0.733668 0.679923 0.49209 0.801851 0.318402 0.99725C0.144713 1.19265 0.0519488 1.44686 0.0589645 1.7082V17.6043C0.0519488 17.8656 0.144713 18.1199 0.318402 18.3153C0.49209 18.5107 0.733668 18.6326 0.994029 18.6562H9.5265V11.6433H7.18883V8.95495H9.5265V6.96794C9.45012 6.10327 9.71189 5.24265 10.2568 4.56696C10.8017 3.89126 11.5873 3.4531 12.4486 3.34456H13.033C13.7363 3.3252 14.44 3.3643 15.1369 3.46145V5.91599H13.6174C12.4486 5.91599 12.3317 6.50041 12.3317 7.2017V8.95495H15.02L14.6694 11.6433H12.3317V18.5394H16.8901C17.1515 18.5464 17.4057 18.4536 17.6011 18.2799C17.7965 18.1062 17.9184 17.8647 17.9421 17.6043V1.59131C17.9257 1.34872 17.8219 1.1203 17.65 0.948373C17.478 0.776443 17.2496 0.672659 17.007 0.65625Z" fill="#959DA5"/>
</svg>
