<svg width="20" height="21" viewBox="0 0 20 21" fill="none" xmlns="http://www.w3.org/2000/svg">
<g clip-path="url(#clip0_1_1876)">
<path d="M10 0.65625C4.475 0.65625 0 5.13125 0 10.6562C0 15.0813 2.8625 18.8188 6.8375 20.1437C7.3375 20.2313 7.525 19.9312 7.525 19.6688C7.525 19.4312 7.5125 18.6438 7.5125 17.8062C5 18.2688 4.35 17.1938 4.15 16.6312C4.0375 16.3438 3.55 15.4562 3.125 15.2188C2.775 15.0312 2.275 14.5687 3.1125 14.5562C3.9 14.5437 4.4625 15.2812 4.65 15.5812C5.55 17.0938 6.9875 16.6688 7.5625 16.4062C7.65 15.7563 7.9125 15.3187 8.2 15.0687C5.975 14.8187 3.65 13.9563 3.65 10.1313C3.65 9.04375 4.0375 8.14375 4.675 7.44375C4.575 7.19375 4.225 6.16875 4.775 4.79375C4.775 4.79375 5.6125 4.53125 7.525 5.81875C8.325 5.59375 9.175 5.48125 10.025 5.48125C10.875 5.48125 11.725 5.59375 12.525 5.81875C14.4375 4.51875 15.275 4.79375 15.275 4.79375C15.825 6.16875 15.475 7.19375 15.375 7.44375C16.0125 8.14375 16.4 9.03125 16.4 10.1313C16.4 13.9688 14.0625 14.8187 11.8375 15.0687C12.2 15.3812 12.5125 15.9813 12.5125 16.9188C12.5125 18.2563 12.5 19.3312 12.5 19.6688C12.5 19.9312 12.6875 20.2437 13.1875 20.1437C15.1727 19.4736 16.8977 18.1977 18.1198 16.4958C19.3419 14.7938 19.9995 12.7515 20 10.6562C20 5.13125 15.525 0.65625 10 0.65625Z" fill="#959DA5"/>
</g>
<defs>
<clipPath id="clip0_1_1876">
<rect width="20" height="20" fill="white" transform="translate(0 0.65625)"/>
</clipPath>
</defs>
</svg>
