<svg width="19" height="19" viewBox="0 0 19 19" fill="none" xmlns="http://www.w3.org/2000/svg">
<path d="M3.93945 2.65617C3.93927 3.05425 3.82031 3.44322 3.59777 3.7733C3.37524 4.10337 3.05927 4.35952 2.69031 4.50898C2.32135 4.65843 1.91619 4.69437 1.52668 4.61221C1.13717 4.53006 0.781037 4.33353 0.503871 4.04779C0.226705 3.76205 0.0411131 3.4001 -0.0291475 3.00827C-0.099408 2.61644 -0.0511408 2.21256 0.109476 1.84832C0.270092 1.48408 0.535751 1.17606 0.872446 0.963679C1.20914 0.751302 1.60155 0.644232 1.99945 0.656174C2.51942 0.67178 3.01284 0.889363 3.37504 1.26276C3.73723 1.63615 3.93969 2.13597 3.93945 2.65617ZM3.99945 6.13617H-0.000545874V18.6562H3.99945V6.13617ZM10.3195 6.13617H6.33945V18.6562H10.2795V12.0862C10.2795 8.42617 15.0495 8.08617 15.0495 12.0862V18.6562H18.9995V10.7262C18.9995 4.55617 11.9395 4.78617 10.2795 7.81617L10.3195 6.13617Z" fill="#959DA5"/>
</svg>
