<svg width="18" height="19" viewBox="0 0 18 19" fill="none" xmlns="http://www.w3.org/2000/svg">
<g clip-path="url(#clip0_1_1873)">
<path d="M9.39286 0.67125C10.3754 0.65625 11.3504 0.66375 12.3254 0.65625C12.3854 1.80375 12.7979 2.97375 13.6379 3.78375C14.4779 4.61625 15.6629 4.99875 16.8179 5.12625V8.14875C15.7379 8.11125 14.6504 7.88625 13.6679 7.42125C13.2404 7.22625 12.8429 6.97875 12.4529 6.72375C12.4454 8.91375 12.4604 11.1037 12.4379 13.2862C12.3779 14.3362 12.0329 15.3787 11.4254 16.2412C10.4429 17.6812 8.74036 18.6187 6.99286 18.6487C5.92036 18.7087 4.84786 18.4162 3.93286 17.8762C2.41786 16.9837 1.35286 15.3487 1.19536 13.5937C1.18036 13.2187 1.17286 12.8437 1.18786 12.4762C1.32286 11.0512 2.02786 9.68625 3.12286 8.75625C4.36786 7.67625 6.10786 7.15875 7.73536 7.46625C7.75036 8.57625 7.70536 9.68625 7.70536 10.7962C6.96286 10.5562 6.09286 10.6237 5.44036 11.0737C4.96786 11.3812 4.60786 11.8537 4.42036 12.3862C4.26286 12.7687 4.30786 13.1887 4.31536 13.5937C4.49536 14.8237 5.68036 15.8587 6.94036 15.7462C7.78036 15.7387 8.58286 15.2512 9.01786 14.5387C9.16036 14.2912 9.31786 14.0362 9.32536 13.7437C9.40036 12.4012 9.37036 11.0662 9.37786 9.72375C9.38536 6.70125 9.37036 3.68625 9.39286 0.67125Z" fill="#959DA5"/>
</g>
<defs>
<clipPath id="clip0_1_1873">
<rect width="18" height="18" fill="white" transform="translate(0 0.65625)"/>
</clipPath>
</defs>
</svg>
