<svg width="22" height="19" viewBox="0 0 22 19" fill="none" xmlns="http://www.w3.org/2000/svg">
<path d="M22 2.83104C21.1778 3.19766 20.3043 3.43637 19.4099 3.5389C20.3537 2.97732 21.0601 2.09067 21.3967 1.0453C20.5082 1.56974 19.5372 1.93965 18.525 2.13927C17.9059 1.47973 17.1027 1.02152 16.2199 0.824096C15.337 0.626677 14.4152 0.699164 13.5741 1.03215C12.7329 1.36514 12.0113 1.94325 11.5028 2.69147C10.9943 3.43969 10.7225 4.32346 10.7225 5.22812C10.7215 5.57491 10.762 5.92057 10.8431 6.25773C9.04843 6.16678 7.29277 5.70025 5.68965 4.8883C4.08653 4.07635 2.67162 2.93704 1.53638 1.54402C0.958857 2.53773 0.782115 3.7143 1.04219 4.83383C1.30227 5.95336 1.97958 6.93153 2.93601 7.56888C2.21991 7.54617 1.51952 7.35315 0.89287 7.00581V7.06212C0.892853 8.10403 1.25332 9.11386 1.9131 9.92026C2.57287 10.7267 3.49133 11.2799 4.51261 11.4862C4.12481 11.5931 3.72438 11.6472 3.32212 11.6471C3.03613 11.6447 2.75088 11.6177 2.46947 11.5667C2.75802 12.4633 3.31924 13.2475 4.07484 13.8099C4.83044 14.3723 5.74274 14.6848 6.68446 14.7038C5.08433 15.9567 3.11013 16.6364 1.07788 16.6343C0.717662 16.6332 0.357796 16.6117 0 16.57C2.06354 17.8957 4.46505 18.5994 6.91773 18.597C15.219 18.597 19.7558 11.7195 19.7558 5.75901C19.7558 5.56596 19.7477 5.36486 19.7397 5.17181C20.6263 4.53221 21.3918 3.73953 22 2.83104Z" fill="#959DA5"/>
</svg>
