<svg width="23" height="17" viewBox="0 0 23 17" fill="none" xmlns="http://www.w3.org/2000/svg">
<g clip-path="url(#clip0_1_1867)">
<path d="M22.3056 3.16214C22.1814 2.68299 21.9335 2.24491 21.5866 1.89182C21.2397 1.53873 20.806 1.28303 20.3292 1.15037C18.5645 0.656256 11.4939 0.656256 11.4939 0.656256C8.54559 0.620825 5.59814 0.778022 2.67035 1.12684C2.1933 1.2692 1.76041 1.53078 1.41253 1.88689C1.06466 2.243 0.813271 2.6819 0.682111 3.16214C0.365801 4.97619 0.212249 6.81487 0.223287 8.65626C0.211492 10.4977 0.36505 12.3364 0.682111 14.1504C0.810572 14.6293 1.06141 15.0667 1.41 15.4194C1.75858 15.7721 2.19292 16.0281 2.67035 16.1621C4.45858 16.6563 11.4939 16.6563 11.4939 16.6563C14.4461 16.6917 17.3974 16.5345 20.3292 16.1857C20.806 16.053 21.2397 15.7973 21.5866 15.4442C21.9335 15.0911 22.1814 14.6531 22.3056 14.1739C22.63 12.3607 22.7875 10.5217 22.7762 8.67979C22.8005 6.82959 22.6429 4.98149 22.3056 3.16214ZM9.24682 12.0798V5.23273L15.1292 8.65626L9.24682 12.0798Z" fill="#959DA5"/>
</g>
<defs>
<clipPath id="clip0_1_1867">
<rect width="22.5529" height="16" fill="white" transform="translate(0.222656 0.65625)"/>
</clipPath>
</defs>
</svg>
