<svg width="44" height="45" viewBox="0 0 44 45" fill="none" xmlns="http://www.w3.org/2000/svg">
<rect y="0.5" width="44" height="44" rx="22" fill="#FBEFFF"/>
<path d="M12 26.5625C12 25.355 12.98 24.375 14.1875 24.375H29.8125C31.02 24.375 32 25.355 32 26.5625V30.3125C32 30.8927 31.7695 31.4491 31.3593 31.8593C30.9491 32.2695 30.3927 32.5 29.8125 32.5H14.1875C13.6073 32.5 13.0509 32.2695 12.6407 31.8593C12.2305 31.4491 12 30.8927 12 30.3125V26.5625ZM14.5 14.6875C14.5 13.48 15.48 12.5 16.6875 12.5H27.3125C28.52 12.5 29.5 13.48 29.5 14.6875V20.9375C29.5 21.5177 29.2695 22.0741 28.8593 22.4843C28.4491 22.8945 27.8927 23.125 27.3125 23.125H16.6875C16.1073 23.125 15.5509 22.8945 15.1407 22.4843C14.7305 22.0741 14.5 21.5177 14.5 20.9375V14.6875ZM16.6875 14.375C16.6046 14.375 16.5251 14.4079 16.4665 14.4665C16.4079 14.5251 16.375 14.6046 16.375 14.6875V20.9375C16.375 21.11 16.515 21.25 16.6875 21.25H27.3125C27.3954 21.25 27.4749 21.2171 27.5335 21.1585C27.5921 21.0999 27.625 21.0204 27.625 20.9375V14.6875C27.625 14.6046 27.5921 14.5251 27.5335 14.4665C27.4749 14.4079 27.3954 14.375 27.3125 14.375H16.6875ZM14.1875 26.25C14.1046 26.25 14.0251 26.2829 13.9665 26.3415C13.9079 26.4001 13.875 26.4796 13.875 26.5625V30.3125C13.875 30.485 14.015 30.625 14.1875 30.625H29.8125C29.8954 30.625 29.9749 30.5921 30.0335 30.5335C30.0921 30.4749 30.125 30.3954 30.125 30.3125V26.5625C30.125 26.4796 30.0921 26.4001 30.0335 26.3415C29.9749 26.2829 29.8954 26.25 29.8125 26.25H14.1875Z" fill="#8250DF"/>
<path d="M20.75 28.4375C20.75 28.1889 20.8488 27.9504 21.0246 27.7746C21.2004 27.5988 21.4389 27.5 21.6875 27.5H27.3125C27.5611 27.5 27.7996 27.5988 27.9754 27.7746C28.1512 27.9504 28.25 28.1889 28.25 28.4375C28.25 28.6861 28.1512 28.9246 27.9754 29.1004C27.7996 29.2762 27.5611 29.375 27.3125 29.375H21.6875C21.4389 29.375 21.2004 29.2762 21.0246 29.1004C20.8488 28.9246 20.75 28.6861 20.75 28.4375ZM15.75 28.4375C15.75 28.1889 15.8488 27.9504 16.0246 27.7746C16.2004 27.5988 16.4389 27.5 16.6875 27.5H17.3125C17.5611 27.5 17.7996 27.5988 17.9754 27.7746C18.1512 27.9504 18.25 28.1889 18.25 28.4375C18.25 28.6861 18.1512 28.9246 17.9754 29.1004C17.7996 29.2762 17.5611 29.375 17.3125 29.375H16.6875C16.4389 29.375 16.2004 29.2762 16.0246 29.1004C15.8488 28.9246 15.75 28.6861 15.75 28.4375Z" fill="#8250DF"/>
</svg>
