<svg width="44" height="45" viewBox="0 0 44 45" fill="none" xmlns="http://www.w3.org/2000/svg">
<rect y="0.5" width="44" height="44" rx="22" fill="#DAFBE1"/>
<path d="M22.6663 12.6661L29.2288 14.7661C29.6704 14.9073 30.0558 15.1853 30.3293 15.5598C30.6027 15.9343 30.75 16.3861 30.75 16.8498V21.2498C30.75 23.2073 30.35 25.2273 29.1212 27.1023C27.8925 28.9748 25.89 30.6186 22.8313 31.9211C22.5684 32.033 22.2857 32.0907 22 32.0907C21.7143 32.0907 21.4316 32.033 21.1687 31.9211C18.11 30.6186 16.1075 28.9748 14.8787 27.1023C13.65 25.2273 13.25 23.2073 13.25 21.2498V16.8498C13.25 16.3861 13.3973 15.9343 13.6707 15.5598C13.9442 15.1853 14.3296 14.9073 14.7713 14.7661L21.3337 12.6661C21.7671 12.5273 22.2329 12.5273 22.6663 12.6661ZM21.9037 14.4523L21.905 14.4536L15.3425 16.5536C15.2797 16.5738 15.2249 16.6133 15.1858 16.6665C15.1468 16.7197 15.1255 16.7838 15.125 16.8498V21.2498C15.125 22.9498 15.4688 24.5823 16.4462 26.0736C17.4262 27.5661 19.0975 29.0011 21.9037 30.1961C21.9342 30.2091 21.9669 30.2158 22 30.2158C22.0331 30.2158 22.0658 30.2091 22.0962 30.1961C24.9025 28.9998 26.5737 27.5673 27.5538 26.0748C28.5312 24.5823 28.875 22.9473 28.875 21.2498V16.8498C28.875 16.7836 28.8539 16.7191 28.8148 16.6656C28.7757 16.6121 28.7206 16.5725 28.6575 16.5523L22.095 14.4523C22.0328 14.4323 21.9659 14.4323 21.9037 14.4523ZM23.875 20.6248C23.875 21.2948 23.5175 21.9148 22.9375 22.2498V25.3123C22.9375 25.561 22.8387 25.7994 22.6629 25.9752C22.4871 26.151 22.2486 26.2498 22 26.2498C21.7514 26.2498 21.5129 26.151 21.3371 25.9752C21.1613 25.7994 21.0625 25.561 21.0625 25.3123V22.2498C20.7775 22.0853 20.5408 21.8486 20.3763 21.5636C20.2117 21.2787 20.1251 20.9554 20.125 20.6263C20.1249 20.2972 20.2115 19.9739 20.376 19.6889C20.5404 19.4039 20.777 19.1672 21.062 19.0025C21.3469 18.8379 21.6702 18.7512 21.9992 18.751C22.3283 18.7509 22.6516 18.8374 22.9367 19.0018C23.2218 19.1662 23.4586 19.4027 23.6233 19.6876C23.788 19.9725 23.8748 20.2957 23.875 20.6248Z" fill="#1A7F37"/>
</svg>
