<svg width="44" height="45" viewBox="0 0 44 45" fill="none" xmlns="http://www.w3.org/2000/svg">
<rect y="0.5" width="44" height="44" rx="22" fill="#FFF8C5"/>
<path d="M12 15.9375C12 14.73 12.98 13.75 14.1875 13.75H29.8125C31.02 13.75 32 14.73 32 15.9375V17.8125C32 18.3927 31.7695 18.9491 31.3593 19.3593C30.9491 19.7695 30.3927 20 29.8125 20H14.1875C13.6073 20 13.0509 19.7695 12.6407 19.3593C12.2305 18.9491 12 18.3927 12 17.8125V15.9375ZM14.1875 21.25C14.4361 21.25 14.6746 21.3488 14.8504 21.5246C15.0262 21.7004 15.125 21.9389 15.125 22.1875V29.0625C15.125 29.235 15.265 29.375 15.4375 29.375H28.5625C28.6454 29.375 28.7249 29.3421 28.7835 29.2835C28.8421 29.2249 28.875 29.1454 28.875 29.0625V22.1875C28.875 21.9389 28.9738 21.7004 29.1496 21.5246C29.3254 21.3488 29.5639 21.25 29.8125 21.25C30.0611 21.25 30.2996 21.3488 30.4754 21.5246C30.6512 21.7004 30.75 21.9389 30.75 22.1875V29.0625C30.75 29.6427 30.5195 30.1991 30.1093 30.6093C29.6991 31.0195 29.1427 31.25 28.5625 31.25H15.4375C14.8573 31.25 14.3009 31.0195 13.8907 30.6093C13.4805 30.1991 13.25 29.6427 13.25 29.0625V22.1875C13.25 21.9389 13.3488 21.7004 13.5246 21.5246C13.7004 21.3488 13.9389 21.25 14.1875 21.25ZM14.1875 15.625C14.1046 15.625 14.0251 15.6579 13.9665 15.7165C13.9079 15.7751 13.875 15.8546 13.875 15.9375V17.8125C13.875 17.985 14.015 18.125 14.1875 18.125H29.8125C29.8954 18.125 29.9749 18.0921 30.0335 18.0335C30.0921 17.9749 30.125 17.8954 30.125 17.8125V15.9375C30.125 15.8546 30.0921 15.7751 30.0335 15.7165C29.9749 15.6579 29.8954 15.625 29.8125 15.625H14.1875ZM19.8125 22.5H24.1875C24.4361 22.5 24.6746 22.5988 24.8504 22.7746C25.0262 22.9504 25.125 23.1889 25.125 23.4375C25.125 23.6861 25.0262 23.9246 24.8504 24.1004C24.6746 24.2762 24.4361 24.375 24.1875 24.375H19.8125C19.5639 24.375 19.3254 24.2762 19.1496 24.1004C18.9738 23.9246 18.875 23.6861 18.875 23.4375C18.875 23.1889 18.9738 22.9504 19.1496 22.7746C19.3254 22.5988 19.5639 22.5 19.8125 22.5Z" fill="#9A6700"/>
</svg>
